<svg xmlns="http://www.w3.org/2000/svg" width="131.406" height="68.73" viewBox="0 0 131.406 68.73">
    <g id="undraw_researching_22gp" transform="translate(-23.886 -265.428)">
        <path id="Path_138" data-name="Path 138" d="M742.594,666.127c-14.216-2.53-29.761-2.11-46.068,0,7.432-6.274,13.847-12.549,6.414-18.823,14.5,2.991,16.528,2.688,32.655,0C731.856,653.578,738.853,659.853,742.594,666.127Z" transform="translate(-587.301 -331.969)" fill="#eb7072"/>
        <path id="Path_139" data-name="Path 139" d="M742.594,666.127c-14.216-2.53-29.761-2.11-46.068,0,7.432-6.274,13.847-12.549,6.414-18.823,14.5,2.991,16.528,2.688,32.655,0C731.856,653.578,738.853,659.853,742.594,666.127Z" transform="translate(-587.301 -331.969)" fill="#f19895" opacity="0.2"/>
        <path id="Path_140" data-name="Path 140" d="M751.454,667.437c-12.076-2.02-25.281-1.684-39.133,0,6.313-5.008,11.762-10.017,5.449-15.025,12.315,2.387,14.04,2.146,27.74,0C742.332,657.42,748.276,662.429,751.454,667.437Z" transform="translate(-599.629 -335.956)" fill="#f18c8e"/>
        <circle id="Ellipse_30" data-name="Ellipse 30" cx="6.434" cy="6.434" r="6.434" transform="translate(140.791 310.543)" fill="#2f2e41"/>
        <path id="Path_141" data-name="Path 141" d="M512.056,466.249l4.458.743,2.229,6.439-6.44,3.963-7.43-11.145h7.183Z" transform="translate(-394.038 -156.735)" fill="#f7a28f"/>
        <circle id="Ellipse_31" data-name="Ellipse 31" cx="10.402" cy="10.402" r="10.402" transform="translate(120.246 298.617)" fill="#f7a28f"/>
        <path id="Path_142" data-name="Path 142" d="M397.052,445.919s-25.263,2.724-29.721,2.229a55.213,55.213,0,0,1-6.44-.991s-2.972,3.963-1.486,5.7a10.716,10.716,0,0,0,2.972,2.477,9.114,9.114,0,0,1,4.706,0c1.981.743,22.043,3.963,25.51.991S397.052,445.919,397.052,445.919Z" transform="translate(-323.864 -174.794)" fill="#2f2e41"/>
        <path id="Path_143" data-name="Path 143" d="M408.19,533.828s-16.594-4.706-19.566-25.51v-1.981s-3.283,5.76-4.458,6.935c-1.362,1.362-6.192,13.622-5.944,14.86a2.967,2.967,0,0,1,0,1.734l-7.183-.743v-2.229s3.839-11.517,4.087-14.241,9.536-21.672,9.536-21.672,3.467-7.183,9.412,0,6.44,12.136,6.44,12.136l7.678,14.861Z" transform="translate(-333.268 -207.471)" fill="#2f2e41"/>
        <path id="Path_144" data-name="Path 144" d="M321.676,429.879l-7.926-2.724s-7.43-5.449-5.7,0,9.659,17.337,11.888,16.1,4.91-4.312,4.313-4.757S319.7,434.833,321.676,429.879Z" transform="translate(-283.906 -158.26)" fill="#2f2e41"/>
        <path id="Path_145" data-name="Path 145" d="M335.837,659.259l-6.4,3.125s-7.737,1.19-3.422,3.422,16.218,4.612,16.813,2.529.359-5.54-.267-5.448S337.623,663.425,335.837,659.259Z" transform="translate(-297.109 -341.3)" fill="#2f2e41"/>
        <path id="Path_146" data-name="Path 146" d="M522.245,599.274s-3.22,13.87,2.229,16.842,43.591,3.468,46.563-1.982,1.486-5.449,1.486-5.449l-7.926-8.916,6.44-.5a2.312,2.312,0,0,0-2.229-2.229c-2.229-.248-9.164-2.724-15.108-.991s-9.412-3.467-9.412-3.467Z" transform="translate(-450.542 -289.264)" fill="#575a89"/>
        <path id="Path_147" data-name="Path 147" d="M292.468,266.666,288.257,289.7l28.978-3.467,5.2-20.8Z" transform="translate(-224.976)" fill="#3f3d56"/>
        <path id="Path_148" data-name="Path 148" d="M299.058,270.615l-3.467,20.557,26.377-3.1,5.077-18.7Z" transform="translate(-230.7 -3.082)" fill="#fff"/>
        <path id="Path_149" data-name="Path 149" d="M287.487,376.241l-.991-.248-.5.991,7.926,22.043.745-.285.245-1.449Z" transform="translate(-223.215 -86.293)" fill="#b3b3b3"/>
        <path id="Path_150" data-name="Path 150" d="M288.257,363.418l7.926,23.034,29.969-4.458-8.916-21.8Z" transform="translate(-224.976 -73.965)" fill="#d0cde1"/>
        <path id="Path_151" data-name="Path 151" d="M306.309,362.675v1.238l22.043-2.477L328.1,360.2Z" transform="translate(-239.065 -73.965)" fill="#3f3d56"/>
        <path id="Path_152" data-name="Path 152" d="M308.565,374.837l3.467,9.659,22.538-2.724-3.963-9.164Z" transform="translate(-240.826 -83.651)" fill="#3f3d56"/>
        <path id="Path_153" data-name="Path 153" d="M600.6,563.2l-.743-1.981s-5.7-9.907-8.669-7.926,6.192,11.641,6.192,11.641h2.972Z" transform="translate(-504.624 -258.394)" fill="#f7a28f"/>
        <path id="Path_154" data-name="Path 154" d="M545.779,564.67l-.743-2.972s-1.981-9.164,1.486-8.669,4.458,9.164,4.458,9.164l-.248,1.981Z" transform="translate(-468.628 -258.376)" fill="#f7a28f"/>
        <path id="Path_155" data-name="Path 155" d="M552.779,599.333s-6.44-.991-6.687.5-1.486,23.777,4.706,24.52,36.9,3.963,33.684-3.715-8.173-6.687-8.173-6.687l-21.052,2.229Z" transform="translate(-469.684 -294.277)" fill="#575a89"/>
        <path id="Path_156" data-name="Path 156" d="M428.335,442.626l-6.563-4.582-4.334,3.344,5.449,5.944Z" transform="translate(-325.797 -134.722)" fill="#575a89"/>
        <path id="Path_157" data-name="Path 157" d="M386.976,479.224l.991,9.412,17.09-.991L390.2,487.4Z" transform="translate(-302.023 -166.861)" opacity="0.2"/>
        <circle id="Ellipse_32" data-name="Ellipse 32" cx="12.384" cy="12.384" r="12.384" transform="translate(123.4 298.525)" fill="#2f2e41"/>
        <path id="Path_158" data-name="Path 158" d="M328.309,285.723l15.356-.535,1.486-5.657-15.851.478Z" transform="translate(-256.235 -11.007)" fill="#f19895"/>
        <path id="Path_159" data-name="Path 159" d="M310.258,316.239l23.281-.743.248-.991-23.281.82Z" transform="translate(-242.147 -38.303)" fill="#e6e6e6"/>
        <path id="Path_160" data-name="Path 160" d="M308,327.521l23.282-.743.248-.991-23.282.82Z" transform="translate(-240.386 -47.108)" fill="#e6e6e6"/>
        <path id="Path_161" data-name="Path 161" d="M306.873,336.547l23.281-.743.248-.991-23.282.82Z" transform="translate(-239.505 -54.153)" fill="#e6e6e6"/>
    </g>
</svg>
