<svg id="Adobe_XD_icon" data-name="Adobe XD icon" xmlns="http://www.w3.org/2000/svg" width="42.144" height="41.09" viewBox="0 0 42.144 41.09">
    <path id="Path_14" data-name="Path 14" d="M34.681,41.09H7.463A7.456,7.456,0,0,1,0,33.627V7.463A7.456,7.456,0,0,1,7.463,0H34.681a7.456,7.456,0,0,1,7.463,7.463V33.627A7.456,7.456,0,0,1,34.681,41.09Z" fill="#ff26be"/>
    <path id="Path_15" data-name="Path 15" d="M136.457,141.777H110.574A6.385,6.385,0,0,1,104.2,135.4V110.574a6.385,6.385,0,0,1,6.374-6.374H136.44a6.373,6.373,0,0,1,6.374,6.374v24.813a6.364,6.364,0,0,1-6.357,6.391Z" transform="translate(-102.443 -102.443)" fill="#2e001f"/>
    <path id="Path_16" data-name="Path 16" d="M475.486,602.034l4.917,9.447c.088.14.035.282-.106.282h-3.056a.344.344,0,0,1-.369-.228c-1.124-2.318-2.266-4.636-3.442-7.129h-.035c-1.054,2.353-2.213,4.83-3.336,7.148a.339.339,0,0,1-.317.194h-2.894c-.175,0-.194-.14-.1-.246l4.811-9.167-4.653-9.272a.142.142,0,0,1,.1-.246h3.021a.275.275,0,0,1,.315.194c1.106,2.318,2.23,4.707,3.284,7.041h.035c1.018-2.318,2.143-4.723,3.232-7.024.088-.14.14-.228.317-.228h2.827c.14,0,.194.106.106.246Zm5.779,2.862c0-4.091,2.722-7.287,7.041-7.287a7.728,7.728,0,0,1,.914.035v-4.653a.175.175,0,0,1,.175-.175h2.775c.14,0,.175.052.175.14v16.121a12.537,12.537,0,0,0,.088,1.721c0,.106-.036.14-.14.194a10.457,10.457,0,0,1-4.5,1.018c-3.811.015-6.534-2.336-6.532-7.114Zm7.953-4.494a2.641,2.641,0,0,0-1.018-.175c-2.213,0-3.757,1.7-3.757,4.531,0,3.232,1.581,4.531,3.565,4.531a3.291,3.291,0,0,0,1.212-.194V600.4Z" transform="translate(-458.822 -582.807)" fill="#ffd9f2"/>
</svg>
