<svg id="After_Effects_Icon" data-name="After Effects Icon" xmlns="http://www.w3.org/2000/svg" xmlns:xlink="http://www.w3.org/1999/xlink" width="44.08" height="42.978" viewBox="0 0 44.08 42.978">
    <defs>
        <radialGradient id="radial-gradient" cx="0.329" cy="0.224" r="0.781" gradientTransform="translate(-0.01 0.01) scale(0.973 0.968)" gradientUnits="objectBoundingBox">
            <stop offset="0" stop-color="#442f55" stop-opacity="0.98"/>
            <stop offset="1" stop-color="#12002c"/>
        </radialGradient>
    </defs>
    <path id="Path_17" data-name="Path 17" d="M24.8,155.549H65.21v39.3H24.8Z" transform="translate(-22.966 -153.712)" fill="url(#radial-gradient)"/>
    <path id="Path_18" data-name="Path 18" d="M1.837,132.583H42.244v39.3H1.837ZM0,173.724H44.08V130.746H0Zm31.187-22.261a8.129,8.129,0,0,0,1.359-.037c0-.129.037-.22.037-.312,0-.992-.478-2.828-2.388-2.828-1.763,0-2.516,1.543-2.7,3.177h3.692Zm-3.728,2.516c.037,2.48,1.212,4.151,4,4.151a7.188,7.188,0,0,0,2.994-.569c.129-.055.22-.037.22.129v2.3a.389.389,0,0,1-.184.367,8.328,8.328,0,0,1-3.692.7c-4.849,0-6.667-3.581-6.667-7.567,0-4.335,2.241-7.879,6.19-7.879,4,0,5.4,3.361,5.4,6.1a9.289,9.289,0,0,1-.147,1.947.273.273,0,0,1-.239.239,26.586,26.586,0,0,1-3.067.128H27.458Zm-9.845-1.873c-.514-2.039-1.763-6.483-2.222-8.632h-.037c-.386,2.149-1.4,5.785-2.149,8.632Zm-5.161,2.975L11,160.574c-.037.147-.092.2-.276.2h-2.7c-.184,0-.22-.055-.184-.275l5.216-18.238a5.629,5.629,0,0,0,.184-1.506c0-.129.055-.184.147-.184h3.857c.129,0,.184.037.22.184l5.841,19.781c.037.147,0,.239-.147.239H20.13a.249.249,0,0,1-.276-.184l-1.506-5.51h-5.9Z" transform="translate(0 -130.746)" fill="#d8a1ff"/>
</svg>
