<svg xmlns="http://www.w3.org/2000/svg" xmlns:xlink="http://www.w3.org/1999/xlink" width="43.89" height="42.792" viewBox="0 0 43.89 42.792">
    <defs>
        <radialGradient id="radial-gradient" cx="0.329" cy="0.224" r="0.781" gradientTransform="translate(-0.01 0.01) scale(0.973 0.968)" gradientUnits="objectBoundingBox">
            <stop offset="0" stop-color="#34364e" stop-opacity="0.98"/>
            <stop offset="1" stop-color="#0c0824"/>
        </radialGradient>
    </defs>
    <g id="Photoshop_Icon" data-name="Photoshop Icon" transform="translate(-1.139 -1.088)">
        <path id="Path_162" data-name="Path 162" d="M1,6.241H41.227V45.376H1Z" transform="translate(1.973 -3.324)" fill="url(#radial-gradient)"/>
        <path id="Path_163" data-name="Path 163" d="M1.829,7.075H42.061V46.21H1.829ZM0,48.038H43.89V5.246H0ZM29.589,22.8c-1.445,0-1.938.731-1.938,1.335,0,.658.329,1.116,2.268,2.121,2.871,1.39,3.767,2.725,3.767,4.682,0,2.926-2.231,4.5-5.248,4.5a7.956,7.956,0,0,1-3.749-.786c-.128-.055-.146-.146-.146-.293V31.671c0-.183.091-.238.219-.146A6.788,6.788,0,0,0,28.437,32.6c1.445,0,2.048-.6,2.048-1.426,0-.658-.421-1.244-2.268-2.194-2.6-1.244-3.676-2.505-3.676-4.608,0-2.359,1.847-4.316,5.047-4.316a8.409,8.409,0,0,1,3.273.512.4.4,0,0,1,.183.366v2.505c0,.146-.091.238-.274.183A6.177,6.177,0,0,0,29.589,22.8ZM13.862,24.978c.421.037.75.037,1.481.037,2.14,0,4.151-.75,4.151-3.657,0-2.322-1.445-3.493-3.877-3.493-.731,0-1.426.037-1.756.055Zm-3.255-9.711c0-.128.256-.219.4-.219,1.17-.055,2.908-.091,4.718-.091,5.066,0,7.041,2.78,7.041,6.327,0,4.645-3.365,6.638-7.5,6.638-.695,0-.933-.037-1.426-.037v7.022c0,.146-.055.219-.219.219h-2.8c-.146,0-.219-.055-.219-.219V15.267Z" transform="translate(1.14 -4.158)" fill="#31c5f0"/>
    </g>
</svg>
