<svg id="Adobe_XD_icon" data-name="Adobe XD icon" xmlns="http://www.w3.org/2000/svg" width="57" height="57" viewBox="0 0 57 57">
    <path id="Background_icon" data-name="Background icon" d="M25,0h7A25,25,0,0,1,57,25v7A25,25,0,0,1,32,57H25A25,25,0,0,1,0,32V25A25,25,0,0,1,25,0Z" fill="#f3e7f0"/>
    <g id="adobe_xd" data-name="adobe xd" transform="translate(16.268 16.406)">
        <path id="Path_14" data-name="Path 14" d="M20.712,24.539H4.457A4.453,4.453,0,0,1,0,20.083V4.457A4.453,4.453,0,0,1,4.457,0H20.712a4.453,4.453,0,0,1,4.457,4.457V20.083A4.453,4.453,0,0,1,20.712,24.539Z" fill="#ff26be"/>
        <path id="Path_15" data-name="Path 15" d="M123.464,126.641H108.006a3.813,3.813,0,0,1-3.807-3.806V108.006a3.813,3.813,0,0,1,3.807-3.807h15.447a3.806,3.806,0,0,1,3.807,3.807v14.818a3.8,3.8,0,0,1-3.8,3.817Z" transform="translate(-103.151 -103.151)" fill="#2e001f"/>
        <path id="Path_16" data-name="Path 16" d="M471.943,598.315l2.937,5.642c.052.084.021.168-.063.168h-1.825a.206.206,0,0,1-.22-.136c-.671-1.384-1.353-2.768-2.056-4.258h-.021c-.629,1.405-1.322,2.884-1.992,4.269a.2.2,0,0,1-.189.116h-1.729c-.1,0-.116-.084-.062-.147l2.873-5.475-2.779-5.537a.085.085,0,0,1,.062-.147h1.8c.1,0,.147.021.188.116.66,1.384,1.332,2.811,1.961,4.205h.021c.608-1.384,1.28-2.821,1.93-4.2.052-.084.084-.136.189-.136h1.688c.084,0,.116.063.063.147Zm3.451,1.709a4.1,4.1,0,0,1,4.205-4.352,4.628,4.628,0,0,1,.546.021v-2.779a.1.1,0,0,1,.1-.1h1.657c.084,0,.1.031.1.084v9.627a7.488,7.488,0,0,0,.052,1.028c0,.063-.021.083-.084.116a6.244,6.244,0,0,1-2.685.608c-2.276.009-3.9-1.4-3.9-4.248Zm4.75-2.684a1.577,1.577,0,0,0-.608-.1c-1.322,0-2.244,1.017-2.244,2.706,0,1.93.944,2.706,2.129,2.706a1.965,1.965,0,0,0,.724-.116V597.34Z" transform="translate(-461.991 -586.832)" fill="#ffd9f2"/>
    </g>
</svg>
