<svg xmlns="http://www.w3.org/2000/svg" width="25.607" height="17.66" viewBox="0 0 25.607 17.66">
    <g id="Visa_Icon" data-name="Visa Icon" transform="translate(0 -79.451)">
        <path id="Path_77" data-name="Path 77" d="M25.607,95.6a1.514,1.514,0,0,1-1.514,1.514H1.514A1.514,1.514,0,0,1,0,95.6V80.965a1.514,1.514,0,0,1,1.514-1.514h22.58a1.514,1.514,0,0,1,1.514,1.514V95.6Z" transform="translate(0 0)" fill="#fff"/>
        <path id="Path_78" data-name="Path 78" d="M34.66,193.148l-.6-2.884a.717.717,0,0,0-.776-.532H30.527l-.025.132A5.67,5.67,0,0,1,34.66,193.148Z" transform="translate(-28.976 -104.765)" fill="#f79f1a"/>
        <g id="Group_19" data-name="Group 19" transform="translate(0 79.451)">
            <path id="Path_79" data-name="Path 79" d="M186.393,190.892h-1.781L183.5,197.42h1.778Z" transform="translate(-174.322 -185.318)" fill="#059bbf"/>
            <path id="Path_80" data-name="Path 80" d="M69.312,197.5l2.8-6.517H70.229l-1.743,4.453-.186-.672a6.965,6.965,0,0,0-2.464-2.706l1.593,5.445Z" transform="translate(-62.543 -185.403)" fill="#059bbf"/>
            <path id="Path_81" data-name="Path 81" d="M246.436,193.165c.007-.741-.469-1.306-1.495-1.773-.623-.3-1-.5-1-.809,0-.27.322-.561,1.019-.561a3.285,3.285,0,0,1,1.332.25l.161.074.241-1.414a4.613,4.613,0,0,0-1.6-.273c-1.758,0-3,.885-3.007,2.154-.011.938.885,1.461,1.559,1.774.693.319.925.523.92.809,0,.437-.552.637-1.063.637a3.733,3.733,0,0,1-1.676-.342l-.228-.1-.25,1.463a5.614,5.614,0,0,0,1.981.347C245.207,195.4,246.423,194.521,246.436,193.165Z" transform="translate(-229.285 -183.197)" fill="#059bbf"/>
            <path id="Path_82" data-name="Path 82" d="M342.628,196.57l2.279,0c.054.227.217.979.217.979h1.651l-1.441-6.524H343.96a.885.885,0,0,0-.932.541l-2.643,5.983h1.87S342.559,196.747,342.628,196.57Zm1.22-3.161c-.009.018.148-.378.237-.623l.121.563s.34,1.56.411,1.886H343.14C343.287,194.859,343.848,193.409,343.848,193.409Z" transform="translate(-323.361 -185.447)" fill="#059bbf"/>
            <path id="Path_83" data-name="Path 83" d="M24.093,79.451H1.514A1.514,1.514,0,0,0,0,80.965v1.571H25.607V80.965A1.514,1.514,0,0,0,24.093,79.451Z" transform="translate(0 -79.451)" fill="#059bbf"/>
        </g>
        <path id="Path_84" data-name="Path 84" d="M24.093,373.956H1.514A1.514,1.514,0,0,1,0,372.442v-1.571H25.607v1.571A1.514,1.514,0,0,1,24.093,373.956Z" transform="translate(0 -276.845)" fill="#f79f1a"/>
    </g>
</svg>
